<?xml version="1.0" encoding="UTF-8" standalone="no"?>
<!-- Created with Inkscape (http://www.inkscape.org/) -->

<svg
   xmlns:dc="http://purl.org/dc/elements/1.1/"
   xmlns:cc="http://creativecommons.org/ns#"
   xmlns:rdf="http://www.w3.org/1999/02/22-rdf-syntax-ns#"
   xmlns:svg="http://www.w3.org/2000/svg"
   xmlns="http://www.w3.org/2000/svg"
   xmlns:sodipodi="http://sodipodi.sourceforge.net/DTD/sodipodi-0.dtd"
   xmlns:inkscape="http://www.inkscape.org/namespaces/inkscape"
   width="210mm"
   height="297mm"
   viewBox="0 0 210 297"
   version="1.1"
   id="svg8"
   sodipodi:docname="chromschwarzfatcap.svg"
   inkscape:version="0.92.2 (5c3e80d, 2017-08-06)">
  <defs
     id="defs2" />
  <sodipodi:namedview
     id="base"
     pagecolor="#ffffff"
     bordercolor="#666666"
     borderopacity="1.0"
     inkscape:pageopacity="0.0"
     inkscape:pageshadow="2"
     inkscape:zoom="0.49497475"
     inkscape:cx="-1095.2201"
     inkscape:cy="1020.4702"
     inkscape:document-units="mm"
     inkscape:current-layer="layer1"
     showgrid="false"
     inkscape:window-width="1920"
     inkscape:window-height="1017"
     inkscape:window-x="-8"
     inkscape:window-y="-8"
     inkscape:window-maximized="1" />
  <metadata
     id="metadata5">
    <rdf:RDF>
      <cc:Work
         rdf:about="">
        <dc:format>image/svg+xml</dc:format>
        <dc:type
           rdf:resource="http://purl.org/dc/dcmitype/StillImage" />
      </cc:Work>
    </rdf:RDF>
  </metadata>
  <g
     inkscape:label="Layer 1"
     inkscape:groupmode="layer"
     id="layer1">
    <path
       style="color:#000000;font-style:normal;font-variant:normal;font-weight:normal;font-stretch:normal;font-size:medium;line-height:normal;font-family:sans-serif;font-variant-ligatures:normal;font-variant-position:normal;font-variant-caps:normal;font-variant-numeric:normal;font-variant-alternates:normal;font-feature-settings:normal;text-indent:0;text-align:start;text-decoration:none;text-decoration-line:none;text-decoration-style:solid;text-decoration-color:#000000;letter-spacing:normal;word-spacing:normal;text-transform:none;writing-mode:lr-tb;direction:ltr;text-orientation:mixed;dominant-baseline:auto;baseline-shift:baseline;text-anchor:start;white-space:normal;shape-padding:0;clip-rule:nonzero;display:inline;overflow:visible;visibility:visible;opacity:1;isolation:auto;mix-blend-mode:normal;color-interpolation:sRGB;color-interpolation-filters:linearRGB;solid-color:#000000;solid-opacity:1;vector-effect:none;fill:#8e8e8e;fill-opacity:0.97324413;fill-rule:nonzero;stroke:#0c0000;stroke-width:5.29166667;stroke-linecap:round;stroke-linejoin:round;stroke-miterlimit:4;stroke-dasharray:none;stroke-dashoffset:0;stroke-opacity:1;color-rendering:auto;image-rendering:auto;shape-rendering:auto;text-rendering:auto;enable-background:accumulate"
       d="m -469.82031,25.767578 c -20.57634,1.669595 -35.67258,16.721019 -44.04492,33.779297 -8.37235,17.058278 -11.28732,37.242671 -5.35352,55.390625 5.9338,18.14795 23.70435,33.22204 48.19727,33.3418 l 13.05273,0.0625 0.12695,-26.10352 -13.05273,-0.0645 c -15.5383,-0.076 -20.35997,-5.71029 -23.51172,-15.34961 -3.15175,-9.639318 -1.64502,-24.321669 3.97656,-35.775392 5.62158,-11.453723 14.08983,-18.561396 22.72071,-19.261719 8.63087,-0.700322 21.86168,4.195431 38.66601,27.47461 l 7.64063,10.582031 21.16601,-15.279297 -7.64062,-10.582031 c -19.74998,-27.359801 -41.36703,-39.884439 -61.94336,-38.214844 z"
       id="path4747"
       inkscape:connector-curvature="0" />
    <path
       style="color:#000000;font-style:normal;font-variant:normal;font-weight:normal;font-stretch:normal;font-size:medium;line-height:normal;font-family:sans-serif;font-variant-ligatures:normal;font-variant-position:normal;font-variant-caps:normal;font-variant-numeric:normal;font-variant-alternates:normal;font-feature-settings:normal;text-indent:0;text-align:start;text-decoration:none;text-decoration-line:none;text-decoration-style:solid;text-decoration-color:#000000;letter-spacing:normal;word-spacing:normal;text-transform:none;writing-mode:lr-tb;direction:ltr;text-orientation:mixed;dominant-baseline:auto;baseline-shift:baseline;text-anchor:start;white-space:normal;shape-padding:0;clip-rule:nonzero;display:inline;overflow:visible;visibility:visible;opacity:1;isolation:auto;mix-blend-mode:normal;color-interpolation:sRGB;color-interpolation-filters:linearRGB;solid-color:#000000;solid-opacity:1;vector-effect:none;fill:#8e8e8e;fill-opacity:0.97324413;fill-rule:nonzero;stroke:#0c0000;stroke-width:20.00000025;stroke-linecap:round;stroke-linejoin:round;stroke-miterlimit:4;stroke-dasharray:none;stroke-dashoffset:0;stroke-opacity:1;color-rendering:auto;image-rendering:auto;shape-rendering:auto;text-rendering:auto;enable-background:accumulate"
       d="M -1386.7832 54.5 C -1426.743 111.46835 -1445.6529 180.99905 -1452.5078 253.87695 C -1464.6795 253.77237 -1477.1079 253.55865 -1488.9336 253.16211 C -1492.0173 187.23872 -1515.4453 117.84924 -1572.5352 57.984375 L -1669.0234 150 C -1613.075 208.66797 -1612.6379 256.28066 -1628.2383 319.5625 C -1643.8387 382.84434 -1683.4603 451.3646 -1709.5859 519.07227 L -1585.1953 567.07031 C -1577.0459 545.95024 -1564.288 520.11875 -1550.6211 490.64258 C -1536.7025 491.35579 -1521.2369 492.09202 -1504.9023 492.74805 C -1481.2421 493.69826 -1458.3271 495.00059 -1435.4785 495.51562 C -1422.3644 539.03419 -1401.1755 579.06688 -1367.3398 612.57812 L -1254.752 498.89844 C -1267.1127 486.65613 -1294.6338 413.34189 -1295.6328 334.88672 C -1296.6319 256.43156 -1274.4471 172.97688 -1255.793 146.38281 L -1386.7832 54.5 z "
       transform="scale(0.26458333)"
       id="path4749" />
    <path
       style="color:#000000;font-style:normal;font-variant:normal;font-weight:normal;font-stretch:normal;font-size:medium;line-height:normal;font-family:sans-serif;font-variant-ligatures:normal;font-variant-position:normal;font-variant-caps:normal;font-variant-numeric:normal;font-variant-alternates:normal;font-feature-settings:normal;text-indent:0;text-align:start;text-decoration:none;text-decoration-line:none;text-decoration-style:solid;text-decoration-color:#000000;letter-spacing:normal;word-spacing:normal;text-transform:none;writing-mode:lr-tb;direction:ltr;text-orientation:mixed;dominant-baseline:auto;baseline-shift:baseline;text-anchor:start;white-space:normal;shape-padding:0;clip-rule:nonzero;display:inline;overflow:visible;visibility:visible;opacity:1;isolation:auto;mix-blend-mode:normal;color-interpolation:sRGB;color-interpolation-filters:linearRGB;solid-color:#000000;solid-opacity:1;vector-effect:none;fill:#8e8e8e;fill-opacity:0.97324413;fill-rule:nonzero;stroke:#0c0000;stroke-width:20.00000025;stroke-linecap:round;stroke-linejoin:round;stroke-miterlimit:4;stroke-dasharray:none;stroke-dashoffset:0;stroke-opacity:1;color-rendering:auto;image-rendering:auto;shape-rendering:auto;text-rendering:auto;enable-background:accumulate"
       d="M -1090.3496 80.917969 C -1094.5329 80.935667 -1098.7564 81.030401 -1103.0234 81.201172 C -1139.2363 82.650432 -1178.4899 89.62194 -1220.9766 101.94922 C -1221.9163 99.995004 -1222.8801 98.046245 -1223.8809 96.105469 L -1283.1348 126.6582 C -1256.1738 178.94276 -1258.9191 247.85791 -1271.0137 331.16602 C -1283.1082 414.47412 -1303.6803 509.96997 -1301.1621 612.0332 L -1234.5098 610.38672 C -1235.9838 550.64078 -1228.3847 491.19412 -1219.4414 433.13281 C -1213.0773 435.41047 -1206.7534 437.50843 -1200.4668 439.44336 C -1155.33 489.95121 -1112.3428 529.59366 -1064.5859 555.73047 C -1030.114 574.59655 -990.57135 585.98169 -949.9082 581.25781 C -909.24506 576.53389 -871.82237 555.85698 -841.0332 526.74219 L -932.64258 429.86914 C -948.48953 444.85432 -957.81486 447.94283 -965.30078 448.8125 C -972.74644 449.67745 -982.69543 448.49823 -1000.291 438.91406 C -931.02366 411.69491 -881.2513 352.70433 -872.31836 283.64258 C -863.10572 212.4185 -907.67406 133.79186 -980.41016 102.09961 C -1013.3687 87.739061 -1049.9111 80.746885 -1090.3496 80.917969 z M -1088.3887 255.25195 C -1068.7689 255.2826 -1055.9464 258.26481 -1049.6465 261.00977 C -1045.3598 262.87755 -1045.8099 262.31594 -1044.8105 262.49219 C -1045.1979 264.13048 -1047.4907 271.82375 -1065.2363 278.17188 C -1082.4293 284.32232 -1115.8208 287.76416 -1168.2285 267.29102 C -1139.3902 259.4721 -1115.765 256.18262 -1097.2148 255.42773 C -1094.1338 255.30236 -1091.1915 255.24757 -1088.3887 255.25195 z "
       transform="scale(0.26458333)"
       id="path4802" />
    <path
       style="color:#000000;font-style:normal;font-variant:normal;font-weight:normal;font-stretch:normal;font-size:medium;line-height:normal;font-family:sans-serif;font-variant-ligatures:normal;font-variant-position:normal;font-variant-caps:normal;font-variant-numeric:normal;font-variant-alternates:normal;font-feature-settings:normal;text-indent:0;text-align:start;text-decoration:none;text-decoration-line:none;text-decoration-style:solid;text-decoration-color:#000000;letter-spacing:normal;word-spacing:normal;text-transform:none;writing-mode:lr-tb;direction:ltr;text-orientation:mixed;dominant-baseline:auto;baseline-shift:baseline;text-anchor:start;white-space:normal;shape-padding:0;clip-rule:nonzero;display:inline;overflow:visible;visibility:visible;opacity:1;isolation:auto;mix-blend-mode:normal;color-interpolation:sRGB;color-interpolation-filters:linearRGB;solid-color:#000000;solid-opacity:1;vector-effect:none;fill:#8e8e8e;fill-opacity:0.97324413;fill-rule:nonzero;stroke:#0c0000;stroke-width:5.29166667;stroke-linecap:round;stroke-linejoin:round;stroke-miterlimit:4;stroke-dasharray:none;stroke-dashoffset:0;stroke-opacity:1;color-rendering:auto;image-rendering:auto;shape-rendering:auto;text-rendering:auto;enable-background:accumulate"
       d="m -199.16406,31.664062 c -24.30881,-0.468102 -43.80388,4.957439 -56.9375,17.832032 -13.13363,12.874592 -16.33023,31.398435 -13.66797,46.40039 2.66225,15.001956 9.92742,28.149506 19.71484,38.759766 9.78742,10.61026 22.56163,19.57577 39.33985,20.15234 17.03953,0.58555 30.24053,-7.21718 41.83398,-16.63086 11.59345,-9.41367 21.49475,-21.33828 27.64648,-35.41992 6.15174,-14.081633 8.53891,-33.300134 -2.73242,-48.869138 -11.27133,-15.569004 -30.84508,-21.755671 -55.19726,-22.22461 z m -0.81446,42.326172 c 17.47934,0.336592 21.77866,4.802708 21.72071,4.722657 -0.058,-0.08005 0.88221,1.027675 -1.76953,7.097656 -2.65175,6.069981 -8.91154,14.122106 -15.53711,19.501953 -6.62558,5.37985 -13.70158,7.18728 -13.69532,7.1875 -0.25505,-0.009 -5.15199,-1.64066 -9.67773,-6.54688 -4.52574,-4.90621 -8.21504,-12.193362 -9.14844,-17.45312 -0.9334,-5.259758 -0.36647,-6.825032 1.61914,-8.771484 1.98562,-1.946453 8.96556,-6.075708 26.48828,-5.738282 z"
       id="path4759"
       inkscape:connector-curvature="0" />
    <path
       style="color:#000000;font-style:normal;font-variant:normal;font-weight:normal;font-stretch:normal;font-size:medium;line-height:normal;font-family:sans-serif;font-variant-ligatures:normal;font-variant-position:normal;font-variant-caps:normal;font-variant-numeric:normal;font-variant-alternates:normal;font-feature-settings:normal;text-indent:0;text-align:start;text-decoration:none;text-decoration-line:none;text-decoration-style:solid;text-decoration-color:#000000;letter-spacing:normal;word-spacing:normal;text-transform:none;writing-mode:lr-tb;direction:ltr;text-orientation:mixed;dominant-baseline:auto;baseline-shift:baseline;text-anchor:start;white-space:normal;shape-padding:0;clip-rule:nonzero;display:inline;overflow:visible;visibility:visible;opacity:1;isolation:auto;mix-blend-mode:normal;color-interpolation:sRGB;color-interpolation-filters:linearRGB;solid-color:#000000;solid-opacity:1;vector-effect:none;fill:#8e8e8e;fill-opacity:0.97324413;fill-rule:nonzero;stroke:#0c0000;stroke-width:20.00000025;stroke-linecap:round;stroke-linejoin:round;stroke-miterlimit:4;stroke-dasharray:none;stroke-dashoffset:0;stroke-opacity:1;color-rendering:auto;image-rendering:auto;shape-rendering:auto;text-rendering:auto;enable-background:accumulate"
       d="M -610.17969 127.4707 C -615.58015 179.59453 -612.16005 231.30479 -599.97461 278.78906 C -595.36831 319.53989 -590.69919 359.26777 -590.10156 395.4707 C -589.45016 434.93014 -593.60326 469.53494 -604.8418 495.99609 C -616.08034 522.45725 -632.84992 541.79108 -665.16016 556.35156 L -637.76562 617.12695 C -591.58872 596.31752 -560.31718 561.68761 -543.48438 522.05469 C -529.8481 489.94812 -524.67235 455.22655 -523.58789 419.57422 C -497.79881 445.78199 -466.43592 466.49356 -429.49219 479.72656 C -391.49115 493.3383 -348.6126 494.54621 -307.00586 484.39258 C -307.62225 500.22126 -307.64349 515.95104 -307.01367 531.60742 C -302.08465 654.13506 -229.67168 785.20912 -107.31055 835.93945 L -5.1816406 589.60547 C -39.626744 575.32468 -38.243532 578.58301 -40.564453 520.88867 C -42.885374 463.19433 -21.030412 357.5405 25.533203 227.45898 L -220.78125 139.28516 L -229.16992 135.95312 C -264.38273 224.61901 -302.64827 272.41035 -327.52734 291.52539 C -352.40641 310.64044 -357.33717 307.293 -366.54688 303.99414 C -384.96628 297.39643 -433.48221 233.30658 -424.50977 146.70703 L -610.17969 127.4707 z "
       transform="scale(0.26458333)"
       id="path4761" />
  </g>
</svg>
